<?xml version="1.0" encoding="utf-8"?>
<!-- Generator: Adobe Illustrator 24.1.2, SVG Export Plug-In . SVG Version: 6.00 Build 0)  -->
<svg version="1.1" id="Layer_1" xmlns="http://www.w3.org/2000/svg" xmlns:xlink="http://www.w3.org/1999/xlink" x="0px" y="0px"
	 viewBox="0 0 700 700" style="enable-background:new 0 0 700 700;" xml:space="preserve">
<style type="text/css">
	.st0{fill:#B53209;}
</style>
<path class="st0" d="M173.4,131.8c-23.8,0-46.6,9.4-63.4,26.2c-16.8,16.8-26.2,39.6-26.2,63.4c0,23.8,9.4,46.6,26.2,63.4
	c16.8,16.8,39.6,26.2,63.4,26.2c23.8,0,46.6-9.4,63.4-26.2c16.8-16.8,26.2-39.6,26.2-63.4c0-23.8-9.4-46.6-26.2-63.4
	C219.9,141.3,197.1,131.8,173.4,131.8z M173.4,266.2c-11.9,0-23.3-4.7-31.7-13.1c-8.4-8.4-13.1-19.8-13.1-31.7
	c0-11.9,4.7-23.3,13.1-31.7c8.4-8.4,19.8-13.1,31.7-13.1s23.3,4.7,31.7,13.1s13.1,19.8,13.1,31.7c0,11.9-4.7,23.3-13.1,31.7
	C196.6,261.5,185.2,266.2,173.4,266.2L173.4,266.2z"/>
<path d="M470.7,232.8c6.2,4.8,14.4,6,21.7,3.2c7.3-2.8,12.6-9.2,14-16.8c1.4-7.7-1.2-15.5-7.1-20.8L365,86.4
	c-4-3.4-9.1-5.2-14.3-5.2c-5.2,0-10.3,1.8-14.3,5.2l-134.4,112c-5.8,5.2-8.5,13.1-7.1,20.8c1.4,7.7,6.7,14.1,14,16.8
	c7.3,2.8,15.5,1.6,21.7-3.2l97.7-81.4v76.1L201.9,332.8c-5.8,5.2-8.5,13.1-7.1,20.8c1.4,7.7,6.7,14.1,14,16.8
	c7.3,2.8,15.5,1.6,21.7-3.2l97.7-81.4v76.1L201.9,467.2c-4.8,3.7-7.9,9.2-8.6,15.3c-0.7,6,1.2,12.1,5.1,16.8c3.9,4.7,9.5,7.6,15.6,8
	c6.1,0.4,12.1-1.6,16.6-5.7l97.7-81.4v176.2c0,8,4.3,15.4,11.2,19.4c6.9,4,15.5,4,22.4,0c6.9-4,11.2-11.4,11.2-19.4V420.2l97.7,81.4
	c6.2,4.8,14.4,6,21.7,3.2c7.3-2.8,12.6-9.2,14-16.8c1.4-7.7-1.2-15.5-7.1-20.8L373,361.9v-76.1l97.7,81.4c6.2,4.8,14.4,6,21.7,3.2
	c7.3-2.8,12.6-9.2,14-16.8c1.4-7.7-1.2-15.5-7.1-20.8L373,227.5v-76.1L470.7,232.8z"/>
</svg>
