<?xml version="1.0" encoding="utf-8"?>
<!-- Generator: Adobe Illustrator 24.1.2, SVG Export Plug-In . SVG Version: 6.00 Build 0)  -->
<svg version="1.1" id="Layer_1" xmlns="http://www.w3.org/2000/svg" xmlns:xlink="http://www.w3.org/1999/xlink" x="0px" y="0px"
	 viewBox="0 0 422.6 537.6" style="enable-background:new 0 0 422.6 537.6;" xml:space="preserve">
<style type="text/css">
	.st0{fill:#B53209;}
	.st1{fill:#180B04;}
</style>
<path class="st0" d="M105.7,50.6c-28.1,0-54.9,11.1-74.8,30.9S0,128.2,0,156.3s11.1,54.9,30.9,74.8s46.7,30.9,74.8,30.9
	s54.9-11.1,74.8-30.9s30.9-46.7,30.9-74.8s-11.1-54.9-30.9-74.8C160.5,61.8,133.6,50.6,105.7,50.6z M105.7,209.1
	c-14,0-27.5-5.5-37.4-15.4s-15.4-23.3-15.4-37.4s5.5-27.5,15.4-37.4s23.3-15.4,37.4-15.4s27.5,5.5,37.4,15.4s15.4,23.3,15.4,37.4
	s-5.5,27.5-15.4,37.4C133,203.5,119.6,209.1,105.7,209.1L105.7,209.1z"/>
<path class="st1" d="M386.9,151.6c6.2,4.8,14.4,6,21.7,3.2c7.3-2.8,12.6-9.2,14-16.8c1.4-7.7-1.2-15.5-7.1-20.8L281.2,5.2
	c-4-3.4-9.1-5.2-14.3-5.2c-5.2,0-10.3,1.8-14.3,5.2l-134.4,112c-5.8,5.2-8.5,13.1-7.1,20.8s6.7,14.1,14,16.8
	c7.3,2.8,15.5,1.6,21.7-3.2l97.7-81.4v76.1L118.1,251.6c-5.8,5.2-8.5,13.1-7.1,20.8c1.4,7.7,6.7,14.1,14,16.8
	c7.3,2.8,15.5,1.6,21.7-3.2l97.7-81.4v76.1L118.1,386c-4.8,3.7-7.9,9.2-8.6,15.3c-0.7,6,1.2,12.1,5.1,16.8c3.9,4.7,9.5,7.6,15.6,8
	c6.1,0.4,12.1-1.6,16.6-5.7l97.7-81.4v176.2c0,8,4.3,15.4,11.2,19.4c6.9,4,15.5,4,22.4,0s11.2-11.4,11.2-19.4V339l97.7,81.4
	c6.2,4.8,14.4,6,21.7,3.2c7.3-2.8,12.6-9.2,14-16.8c1.4-7.7-1.2-15.5-7.1-20.8L289.2,280.7v-76.1l97.7,81.4c6.2,4.8,14.4,6,21.7,3.2
	c7.3-2.8,12.6-9.2,14-16.8c1.4-7.7-1.2-15.5-7.1-20.8L289.2,146.3V70.2L386.9,151.6z"/>
</svg>
