<?xml version="1.0" encoding="utf-8"?>
<!-- Generator: Adobe Illustrator 24.1.2, SVG Export Plug-In . SVG Version: 6.00 Build 0)  -->
<svg version="1.1" id="Layer_1" xmlns="http://www.w3.org/2000/svg" xmlns:xlink="http://www.w3.org/1999/xlink" x="0px" y="0px"
	 viewBox="0 0 700 700" style="enable-background:new 0 0 700 700;" xml:space="preserve">
<style type="text/css">
	.st0{fill:#B53209;}
	.st1{fill:none;stroke:#B53209;stroke-width:28;stroke-miterlimit:10;}
</style>
<g>
	<path class="st0" d="M350,245.4c-68,0-132.2,30-176.1,82.3c-8.2,9.7-6.9,24.2,2.8,32.4c4.3,3.6,9.6,5.4,14.8,5.4
		c6.6,0,13.1-2.8,17.6-8.2c35.2-41.9,86.5-65.9,140.9-65.9c54.4,0,105.7,24,140.9,65.9c4.6,5.4,11.1,8.2,17.6,8.2
		c5.2,0,10.5-1.8,14.8-5.4c9.7-8.2,11-22.7,2.8-32.4C482.2,275.4,418,245.4,350,245.4L350,245.4z"/>
	<path class="st0" d="M596.6,268.6C535,195.4,445.2,153.4,350,153.4s-185,42-246.6,115.2c-8.2,9.7-6.9,24.2,2.8,32.4
		c4.3,3.6,9.5,5.4,14.8,5.4c6.6,0,13.1-2.8,17.6-8.2c52.8-62.8,129.8-98.8,211.4-98.8s158.6,36,211.4,98.8
		c4.6,5.4,11.1,8.2,17.6,8.2c5.2,0,10.5-1.8,14.8-5.4C603.5,292.9,604.8,278.3,596.6,268.6L596.6,268.6z"/>
	<path class="st1" d="M396,500.6c0,25.4-20.6,46-46,46s-46-20.6-46-46c0-25.4,20.6-46,46-46S396,475.2,396,500.6"/>
	<path class="st0" d="M350,337.5c-40.8,0-79.3,18-105.7,49.4c-8.2,9.7-6.9,24.2,2.8,32.4c4.3,3.6,9.6,5.4,14.8,5.4
		c6.6,0,13.1-2.8,17.6-8.2c17.6-20.9,43.3-33,70.4-33s52.9,12,70.4,33c4.6,5.4,11.1,8.2,17.6,8.2c5.2,0,10.5-1.8,14.8-5.4
		c9.7-8.2,11-22.7,2.8-32.4C429.3,355.5,390.8,337.5,350,337.5L350,337.5z"/>
</g>
</svg>
