<?xml version="1.0" encoding="utf-8"?>
<!-- Generator: Adobe Illustrator 24.1.2, SVG Export Plug-In . SVG Version: 6.00 Build 0)  -->
<svg version="1.1" id="Layer_1" xmlns="http://www.w3.org/2000/svg" xmlns:xlink="http://www.w3.org/1999/xlink" x="0px" y="0px"
	 viewBox="0 0 700 700" style="enable-background:new 0 0 700 700;" xml:space="preserve">
<style type="text/css">
	.st0{fill:#B53209;}
</style>
<g>
	<path class="st0" d="M350,338.7c-7.9,0-15.4,3.1-20.9,8.7c-5.6,5.6-8.7,13.1-8.7,20.9v111.1c0,10.6,5.6,20.4,14.8,25.7
		c9.2,5.3,20.5,5.3,29.6,0c9.2-5.3,14.8-15.1,14.8-25.7V368.3c0-7.9-3.1-15.4-8.7-20.9C365.4,341.8,357.9,338.7,350,338.7L350,338.7
		z"/>
	<path class="st0" d="M279.7,473.1c-3.7-16.5-12.8-31.3-26-41.9c-13.2-10.6-29.6-16.4-46.5-16.5c-9.3,0-17.8,4.9-22.5,13
		c-4.6,8-4.6,17.9,0,26c4.6,8,13.2,13,22.5,13c5.1,0,10,1.8,13.9,4.9c4,3.2,6.7,7.6,7.8,12.6l11.3,52.8h0
		c1.3,6.8,5.4,12.9,11.2,16.7c5.8,3.8,12.9,5.2,19.8,3.7c6.8-1.5,12.8-5.6,16.5-11.5c3.7-5.9,4.9-13,3.3-19.8L279.7,473.1z"/>
	<path class="st0" d="M459.7,536.9l11.3-52.8h0c1.1-5,3.8-9.4,7.8-12.6c4-3.2,8.9-4.9,14-5c9.3,0,17.8-4.9,22.5-13
		c4.6-8,4.6-17.9,0-26c-4.6-8-13.2-13-22.5-13c-16.9,0.1-33.3,5.9-46.5,16.5c-13.2,10.6-22.3,25.4-26,41.9L409,525.8l0,0
		c-1.6,6.8-0.4,13.9,3.3,19.8c3.7,5.9,9.7,10,16.5,11.5c6.8,1.5,13.9,0.1,19.8-3.7c5.8-3.8,9.8-9.9,11.2-16.7L459.7,536.9z"/>
	<path class="st0" d="M551.2,358.5c4.1-11.1,6.3-22.9,6.5-34.7c0-24.9-8.9-49-25.2-67.8c-16.3-18.9-38.8-31.2-63.4-34.9
		c-13.2-31.4-38.4-56.3-69.9-69.3c-31.5-13-66.9-13-98.4,0c-31.5,13-56.6,37.9-69.9,69.3c-24.6,3.6-47.2,16-63.4,34.9
		c-16.3,18.9-25.2,42.9-25.2,67.8c0.1,11.9,2.3,23.6,6.5,34.7c2.3,6.6,7.1,11.9,13.3,14.9c6.3,3,13.5,3.4,20,1
		c6.5-2.3,11.9-7.2,14.8-13.5c2.9-6.3,3.2-13.5,0.8-20c-2.1-5.5-3.3-11.3-3.4-17.2c0-13.8,5.5-27,15.2-36.7
		c9.7-9.7,22.9-15.2,36.7-15.2h3.7c5.7,0,11.3-1.9,15.9-5.4c4.5-3.5,7.8-8.5,9.2-14c5.7-22.4,21.1-41.1,42-51
		c20.9-9.9,45.2-9.9,66.1,0c20.9,9.9,36.3,28.6,42,51c1.4,5.6,4.7,10.5,9.2,14c4.5,3.5,10.1,5.4,15.9,5.4h3.6
		c13.8,0,27,5.5,36.7,15.2c9.7,9.7,15.2,22.9,15.2,36.7c0,5.9-1.1,11.7-3.1,17.2c-3.2,6.6-3.5,14.3-0.8,21.2
		c2.8,6.8,8.3,12.2,15.2,14.7c6.9,2.5,14.6,1.9,21.1-1.6C544.7,371.8,549.4,365.7,551.2,358.5L551.2,358.5z"/>
</g>
</svg>
