<?xml version="1.0" encoding="utf-8"?>
<!-- Generator: Adobe Illustrator 24.1.2, SVG Export Plug-In . SVG Version: 6.00 Build 0)  -->
<svg version="1.1" id="Layer_1" xmlns="http://www.w3.org/2000/svg" xmlns:xlink="http://www.w3.org/1999/xlink" x="0px" y="0px"
	 viewBox="0 0 700 700" style="enable-background:new 0 0 700 700;" xml:space="preserve">
<style type="text/css">
	.st0{fill-rule:evenodd;clip-rule:evenodd;fill:#B53209;}
</style>
<path class="st0" d="M350,436.1c-82.8,0-149.8-68.2-149.8-152.1c0-57,46.6-116.5,137.3-181.3v0c7.4-5.3,17.4-5.3,24.9,0l0,0
	C453.1,167.5,499.8,227,499.8,284c0,83.9-67,151.7-149.8,151.7L350,436.1z M243,280.9c0,60.5,48,109.3,107,109.3s107-48.9,107-109.3
	c0-37.2-34.9-83.8-107-137.4C277.9,197.1,243,243.7,243,280.9z M346.8,542.3l-151.5,58.3c-4.8,1.9-10.3-0.5-12.1-5.4l-8.6-22.4
	c-1.9-4.8,0.5-10.3,5.4-12.1l86.9-33.4c8-3.1,8-14.5-0.1-17.5l-86.6-32.5c-4.8-1.8-7.3-7.2-5.5-12.1l8.4-22.5
	c1.8-4.8,7.2-7.3,12.1-5.5L346.6,494c2.1,0.8,4.5,0.8,6.7,0l151.5-58.3c4.8-1.9,10.3,0.5,12.1,5.4l8.6,22.4
	c1.9,4.8-0.5,10.3-5.4,12.1l-86.9,33.4c-8,3.1-8,14.5,0.1,17.5l86.6,32.5c4.8,1.8,7.3,7.2,5.5,12.1l-8.4,22.5
	c-1.8,4.8-7.2,7.3-12.1,5.5l-151.5-56.8C351.3,541.5,348.9,541.5,346.8,542.3z"/>
</svg>
